<?xml version="1.0" encoding="UTF-8"?><svg id="Calque_1" xmlns="http://www.w3.org/2000/svg" viewBox="0 0 2234.23 2919.28"><defs><style>.cls-1,.cls-2{stroke-linecap:round;}.cls-1,.cls-2,.cls-3{fill:none;stroke:#63105b;stroke-width:75.62px;}.cls-1,.cls-3{stroke-miterlimit:10;}.cls-2{stroke-linejoin:round;}</style></defs><path class="cls-3" d="m1165.37,2691.59c-.36,15.71-6.84,29.91-17.23,40.21-10.6,10.69-107.37,100.69-119.05,100.69h-163.1c-9.06,0-145.93-109.76-145.93-142.28,0-16.26,6.56-30.99,17.25-41.59,10.6-10.69,25.33-17.25,41.59-17.25h325.19c33.12,0,62.05,27.1,61.29,60.21Z"/><path class="cls-1" d="m1628.4,1523.4c-240.16,302.61-281.04,512.16-306.54,616.09-6.73,27.43-31.28,46.67-59.52,46.67h-328.38s17.53,0,17.53,0h-328.38c-28.24,0-52.79-19.24-59.52-46.67-25.5-103.93-109.23-369.3-349.4-671.9C-95.55,1077.34,96.49,86.21,951.33,86.21h-17.22c240.43,0,428.42,78.4,567.57,199.78,46.38,40.46,171.82,174.17,222.84,310.23"/><rect class="cls-3" x="570.66" y="2318.4" width="744.12" height="190.36" rx="63.71" ry="63.71"/><polyline class="cls-2" points="2149.6 960.41 1662.78 960.41 1662.78 1225.13 1275.7 1225.13 1275.7 1477.24 943.92 1477.24 943.92 2158.25"/></svg>