<?xml version="1.0" encoding="UTF-8"?><svg id="Calque_1" xmlns="http://www.w3.org/2000/svg" viewBox="0 0 4345.06 2919.28"><defs><style>.cls-1{fill:#63105b;font-family:ArialNarrow7, 'Arial Narrow 7';font-size:680.55px;}.cls-2,.cls-3{stroke-linecap:round;}.cls-2,.cls-3,.cls-4{fill:none;stroke:#63105b;stroke-width:75.62px;}.cls-2,.cls-4{stroke-miterlimit:10;}.cls-3{stroke-linejoin:round;}</style></defs><text class="cls-1" transform="translate(1920.67 728.18)"><tspan x="0" y="0">LA </tspan><tspan x="0" y="869.6">FABRIQUE</tspan></text><path class="cls-4" d="m1163.31,2675.57c-.36,15.71-6.84,29.91-17.23,40.21-10.6,10.69-107.37,100.69-119.05,100.69h-163.1c-9.06,0-145.93-109.76-145.93-142.28,0-16.26,6.56-30.99,17.25-41.59,10.6-10.69,25.33-17.25,41.59-17.25h325.19c33.12,0,62.05,27.1,61.29,60.21Z"/><path class="cls-2" d="m1626.34,1507.39c-240.16,302.61-281.04,512.16-306.54,616.09-6.73,27.43-31.28,46.67-59.52,46.67h-328.38s17.53,0,17.53,0h-328.38c-28.24,0-52.79-19.24-59.52-46.67-25.5-103.93-109.23-369.3-349.4-671.9C-97.6,1061.33,94.43,70.2,949.27,70.2h-17.22c240.43,0,428.42,78.4,567.57,199.78,46.38,40.46,171.82,174.17,222.84,310.23"/><rect class="cls-4" x="568.61" y="2302.38" width="744.12" height="190.36" rx="63.71" ry="63.71"/><polyline class="cls-3" points="3297.62 944.4 1660.72 944.4 1660.72 1209.12 1273.64 1209.12 1273.64 1461.23 941.86 1461.23 941.86 2142.24"/></svg>